# xmcd
#
# Track frame offsets:
#	300
#	16146
#	31919
#	53229
#	71004
#	88632
#	107724
#	123938
#	139412
#
# Disc length: 2053 seconds
#
# Revision: 1
# Processed by: cddbd v1.5.2PL0 Copyright (c) Steve Scherf et al.
# Submitted via: audiograbber 1.83.01
#
DISCID=77080109
DTITLE=Various Artist - SS429
DYEAR=1900
DGENRE=
TTITLE0=Luke Bryan - DRINK A BEER
TTITLE1=FLORIDA GEORGIA LINE - STAY
TTITLE2=ZAC BROWN BAND - SWEET ANNIE
TTITLE3=TAYLOR SWIFT - SWEETER THAN FICTION
TTITLE4=JENNIFER NETTLES - THAT GIRL
TTITLE5=ERIC CHURCH - OUTSIDERS
TTITLE6=JOHN PARDI - UP ALL NIGHT
TTITLE7=COLE SWINDELL - CHILLIN IT
TTITLE8=LADY ANTEBELLUM - COMPASS
EXTD=
EXTT0=
EXTT1=
EXTT2=
EXTT3=
EXTT4=
EXTT5=
EXTT6=
EXTT7=
EXTT8=
PLAYORDER=
